<?xml version="1.0" encoding="UTF-8"?>
<svg version="1.1" xmlns="http://www.w3.org/2000/svg" width="400" height="400">
<path d="M0 0 C165 0 330 0 500 0 C500 165 500 330 500 500 C335 500 170 500 0 500 C0 335 0 170 0 0 Z " fill="none" transform="translate(0,0)"/>
<path d="M0 0 C10.23 0 20.46 0 31 0 C31 4.29 31 8.58 31 13 C95.68 13 160.36 13 227 13 C226.4144789 18.26968992 225.83361329 23.36504294 224.9375 28.5625 C224.76089844 29.59503906 224.58429688 30.62757812 224.40234375 31.69140625 C224.26957031 32.45324219 224.13679688 33.21507812 224 34 C227.3 34 230.6 34 234 34 C233.56680523 42.61908213 232.67468819 51.13300577 231.5625 59.6875 C231.44028076 60.63633057 231.31806152 61.58516113 231.19213867 62.56274414 C230.32218984 69.10120949 229.18435274 75.48605992 228 82 C204.24 82 180.48 82 156 82 C156 144.7 156 207.4 156 272 C137.85 272 119.7 272 101 272 C101 269.03 101 266.06 101 263 C93.74 263 86.48 263 79 263 C79 227.36 79 191.72 79 155 C62.5 155 46 155 29 155 C29 162.92 29 170.84 29 179 C-2.35 179 -33.7 179 -66 179 C-66 209.69 -66 240.38 -66 272 C-83.82 272 -101.64 272 -120 272 C-120 269.36 -120 266.72 -120 264 C-126.93 264 -133.86 264 -141 264 C-141 181.17 -141 98.34 -141 13 C-94.47 13 -47.94 13 0 13 C0 8.71 0 4.42 0 0 Z " fill="#FD3535" transform="translate(230,88)"/>
<path d="M0 0 C46.53 0 93.06 0 141 0 C141 6.93 141 13.86 141 21 C101.73 21 62.46 21 22 21 C22 92.61 22 164.22 22 238 C32.56 238 43.12 238 54 238 C54 207.31 54 176.62 54 145 C85.35 145 116.7 145 149 145 C149 133.78 149 122.56 149 111 C147.02 111 145.04 111 143 111 C143 113.64 143 116.28 143 119 C120.56 119 98.12 119 75 119 C75 116.03 75 113.06 75 110 C68.07 110 61.14 110 54 110 C54 89.21 54 68.42 54 47 C82.71 47 111.42 47 141 47 C141 59.54 141 72.08 141 85 C151.23 85 161.46 85 172 85 C172 79.72 172 74.44 172 69 C187.84 69 203.68 69 220 69 C220 82.86 220 96.72 220 111 C200.53 111 181.06 111 161 111 C161 126.18 161 141.36 161 157 C129.65 157 98.3 157 66 157 C66 187.69 66 218.38 66 250 C51.48 250 36.96 250 22 250 C22 252.97 22 255.94 22 259 C21.67 259 21.34 259 21 259 C21 256.36 21 253.72 21 251 C14.07 251 7.14 251 0 251 C0 168.17 0 85.34 0 0 Z " fill="#FE5B5B" transform="translate(89,101)"/>
<path d="M0 0 C59.73 0 119.46 0 181 0 C180.37743466 8.71591478 179.82350673 15.74058714 178 24 C177.34 27.63 176.68 31.26 176 35 C151.91 35 127.82 35 103 35 C103 97.7 103 160.4 103 225 C89.14 225 75.28 225 61 225 C61 193.32 61 161.64 61 129 C63.31 129 65.62 129 68 129 C68 118.44 68 107.88 68 97 C65.69 97 63.38 97 61 97 C61 76.54 61 56.08 61 35 C42.52 35 24.04 35 5 35 C5 26.09 5 17.18 5 8 C3.35 8 1.7 8 0 8 C0 5.36 0 2.72 0 0 Z " fill="#FF5656" transform="translate(261,114)"/>
<path d="M0 0 C39.27 0 78.54 0 119 0 C119 8.58 119 17.16 119 26 C90.29 26 61.58 26 32 26 C32 46.79 32 67.58 32 89 C38.93 89 45.86 89 53 89 C53 91.97 53 94.94 53 98 C75.44 98 97.88 98 121 98 C121 95.36 121 92.72 121 90 C122.98 90 124.96 90 127 90 C127 101.22 127 112.44 127 124 C95.65 124 64.3 124 32 124 C32 154.69 32 185.38 32 217 C21.44 217 10.88 217 0 217 C0 145.39 0 73.78 0 0 Z " fill="#FE3131" transform="translate(111,122)"/>
<path d="M0 0 C21.78 0 43.56 0 66 0 C66 5.28 66 10.56 66 16 C76.23 16 86.46 16 97 16 C97 10.72 97 5.44 97 0 C112.84 0 128.68 0 145 0 C145 13.53 145 27.06 145 41 C125.53 41 106.06 41 86 41 C86 37.04 86 33.08 86 29 C57.62 29 29.24 29 0 29 C0 19.43 0 9.86 0 0 Z " fill="#FEFEFE" transform="translate(164,170)"/>
<path d="M0 0 C3.3 0 6.6 0 10 0 C9.56680523 8.61908213 8.67468819 17.13300577 7.5625 25.6875 C7.44028076 26.63633057 7.31806152 27.58516113 7.19213867 28.56274414 C6.32218984 35.10120949 5.18435274 41.48605992 4 48 C-19.76 48 -43.52 48 -68 48 C-68 110.7 -68 173.4 -68 238 C-86.15 238 -104.3 238 -123 238 C-123 235.03 -123 232.06 -123 229 C-107.82 229 -92.64 229 -77 229 C-77 166.63 -77 104.26 -77 40 C-53.57 40 -30.14 40 -6 40 C-5.34 33.73 -4.68 27.46 -4 21 C-3.34787011 17.07056041 -2.67910125 13.20494569 -1.875 9.3125 C-1.69324219 8.39662109 -1.51148438 7.48074219 -1.32421875 6.53710938 C-0.89039049 4.35655155 -0.4464381 2.17801111 0 0 Z " fill="#FF5B5B" transform="translate(454,122)"/>
<path d="M0 0 C10.23 0 20.46 0 31 0 C31 32.34 31 64.68 31 98 C20.77 98 10.54 98 0 98 C0 65.66 0 33.32 0 0 Z " fill="#000000" transform="translate(232,268)"/>
<path d="M0 0 C10.23 0 20.46 0 31 0 C31 32.34 31 64.68 31 98 C20.77 98 10.54 98 0 98 C0 65.66 0 33.32 0 0 Z " fill="#000000" transform="translate(230,88)"/>
<path d="M0 0 C42.24 0 84.48 0 128 0 C128 2.64 128 5.28 128 8 C88.4 8 48.8 8 8 8 C8 79.61 8 151.22 8 225 C5.36 225 2.72 225 0 225 C0 150.75 0 76.5 0 0 Z " fill="#FEFEFE" transform="translate(102,114)"/>
<path d="M0 0 C2.64 0 5.28 0 8 0 C8 15.18 8 30.36 8 46 C-23.02 46 -54.04 46 -86 46 C-86 77.02 -86 108.04 -86 140 C-103.49 140 -120.98 140 -139 140 C-139 137.03 -139 134.06 -139 131 C-124.48 131 -109.96 131 -95 131 C-95 100.31 -95 69.62 -95 38 C-63.65 38 -32.3 38 0 38 C0 25.46 0 12.92 0 0 Z " fill="#FF3232" transform="translate(250,220)"/>
<path d="M0 0 C19.47 0 38.94 0 59 0 C59 9.9 59 19.8 59 30 C42.17 30 25.34 30 8 30 C8 22.74 8 15.48 8 8 C5.36 8 2.72 8 0 8 C0 5.36 0 2.72 0 0 Z " fill="#010000" transform="translate(250,212)"/>
<path d="M0 0 C59.73 0 119.46 0 181 0 C180.67 2.64 180.34 5.28 180 8 C120.6 8 61.2 8 0 8 C0 5.36 0 2.72 0 0 Z " fill="#FEFEFE" transform="translate(261,114)"/>
<path d="M0 0 C2.97 0 5.94 0 9 0 C9 55.77 9 111.54 9 169 C6.03 169 3.06 169 0 169 C0 137.32 0 105.64 0 73 C2.31 73 4.62 73 7 73 C7 62.44 7 51.88 7 41 C4.69 41 2.38 41 0 41 C0 27.47 0 13.94 0 0 Z " fill="#FEFDFD" transform="translate(322,170)"/>
<path d="M0 0 C24.42 0 48.84 0 74 0 C74 2.97 74 5.94 74 9 C52.22 9 30.44 9 8 9 C8 18.57 8 28.14 8 38 C5.36 38 2.72 38 0 38 C0 25.46 0 12.92 0 0 Z " fill="#FE3838" transform="translate(156,161)"/>
<path d="M0 0 C22.11 0 44.22 0 67 0 C67 2.64 67 5.28 67 8 C44.89 8 22.78 8 0 8 C0 5.36 0 2.72 0 0 Z " fill="#FFFEFE" transform="translate(164,212)"/>
<path d="M0 0 C2.97 0 5.94 0 9 0 C9 55.77 9 111.54 9 169 C6.03 169 3.06 169 0 169 C0 168.67 0 168.34 0 168 C2.64 168 5.28 168 8 168 C7.98120789 166.29921547 7.98120789 166.29921547 7.96203613 164.56407166 C7.84253188 153.72794672 7.72485807 142.89180315 7.60884857 132.05564022 C7.54919265 126.48849947 7.48895431 120.92136646 7.42724609 115.35424805 C7.15293572 90.56881268 6.90421187 65.78720541 7 41 C4.69 41 2.38 41 0 41 C0 27.47 0 13.94 0 0 Z " fill="#FDF1F1" transform="translate(322,170)"/>
<path d="M0 0 C14.19 0 28.38 0 43 0 C43 2.64 43 5.28 43 8 C28.48 8 13.96 8 -1 8 C-0.67 5.36 -0.34 2.72 0 0 Z " fill="#FF5656" transform="translate(266,162)"/>
<path d="M0 0 C2.31 0 4.62 0 7 0 C7 9.9 7 19.8 7 30 C4.69 30 2.38 30 0 30 C0 20.1 0 10.2 0 0 Z " fill="#010000" transform="translate(322,212)"/>
<path d="M0 0 C1.65 0 3.3 0 5 0 C5 2.64 5 5.28 5 8 C3.35 8 1.7 8 0 8 C0 5.36 0 2.72 0 0 Z " fill="#000000" transform="translate(232,212)"/>
</svg>
